# xmcd
#
# Track frame offsets:
# 150
# 19588
# 34246
# 47381
# 59875
# 77339
# 94761
# 106731
# 123529
# 138435
# 155154
# 173347
# 190161
# 203847
# 220076
#
# Disc length: 3162 seconds
#
#
# Revision: 0
# Processed by: cddbd v1.5.1PL2 Copyright (c) Steve Scherf et al.
# Submitted via: FreeRIP 2.945 
#
DISCID=c40c580f
DTITLE=Juliano Cezar - Ao vivo
DYEAR=1900
DGENRE=Sertanejo
TTITLE0=Cowboy vagabundo
TTITLE1=A malvada
TTITLE2=Gostosa
TTITLE3=Não aprendi dizer adeus
TTITLE4=Ainda existem cowboys
TTITLE5=Bem aos olhos da lua
TTITLE6=Boi bandido
TTITLE7=Rodo sem borracha
TTITLE8=Amor pica-pau
TTITLE9=Se ela me chamar eu vou
TTITLE10=Casar pra que
TTITLE11=Cuida de mim
TTITLE12=The dance
TTITLE13=Quando a vaca foi pro brejo
TTITLE14=Adrenalina
EXTD=
EXTT0=
EXTT1=
EXTT2=
EXTT3=
EXTT4=
EXTT5=
EXTT6=
EXTT7=
EXTT8=
EXTT9=
EXTT10=
EXTT11=
EXTT12=
EXTT13=
EXTT14=
PLAYORDER=
